HIERARCHY
ROOT root
{
	OFFSET 0.000000 0.000000 0.000000
	CHANNELS 6 Xposition Yposition Zposition Zrotation Yrotation Xrotation
	JOINT lhip
	{
		OFFSET 0.058581 -0.082280 -0.017664
		CHANNELS 3 Zrotation Yrotation Xrotation
		JOINT lknee
		{
			OFFSET 0.043451 -0.386469 0.008037
			CHANNELS 3 Zrotation Yrotation Xrotation
			JOINT lankle
			{
				OFFSET -0.014790 -0.426874 -0.037428
				CHANNELS 3 Zrotation Yrotation Xrotation
				JOINT ltoe
				{
					OFFSET 0.041054 -0.060286 0.122042
					CHANNELS 3 Zrotation Yrotation Xrotation
					End Site
					{
						OFFSET 0.000000 0.000000 0.000000
					}
				}
			}
		}
	}
	JOINT rhip
	{
		OFFSET -0.060310 -0.090513 -0.013543
		CHANNELS 3 Zrotation Yrotation Xrotation
		JOINT rknee
		{
			OFFSET -0.043257 -0.383688 -0.004843
			CHANNELS 3 Zrotation Yrotation Xrotation
			JOINT rankle
			{
				OFFSET 0.019056 -0.420046 -0.034562
				CHANNELS 3 Zrotation Yrotation Xrotation
				JOINT rtoe
				{
					OFFSET -0.034840 -0.062106 0.130323
					CHANNELS 3 Zrotation Yrotation Xrotation
					End Site
					{
						OFFSET 0.000000 0.000000 0.000000
					}
				}
			}
		}
	}
	JOINT lowerback
	{
		OFFSET 0.004439 0.124404 -0.038385
		CHANNELS 3 Zrotation Yrotation Xrotation
		JOINT upperback
		{
			OFFSET 0.004488 0.137956 0.026820
			CHANNELS 3 Zrotation Yrotation Xrotation
			JOINT chest
			{
				OFFSET -0.002265 0.056032 0.002855
				CHANNELS 3 Zrotation Yrotation Xrotation
				JOINT lowerneck
				{
					OFFSET -0.013390 0.211636 -0.033468
					CHANNELS 3 Zrotation Yrotation Xrotation
					JOINT upperneck
					{
						OFFSET 0.010113 0.088937 0.050410
						CHANNELS 3 Zrotation Yrotation Xrotation
						End Site
						{
							OFFSET 0.000000 0.000000 0.000000
						}
					}
				}
				JOINT lclavicle
				{
					OFFSET 0.071702 0.114000 -0.018898
					CHANNELS 3 Zrotation Yrotation Xrotation
					JOINT lshoulder
					{
						OFFSET 0.122921 0.045205 -0.019046
						CHANNELS 3 Zrotation Yrotation Xrotation
						JOINT lelbow
						{
							OFFSET 0.255332 -0.015649 -0.022946
							CHANNELS 3 Zrotation Yrotation Xrotation
							JOINT lwrist
							{
								OFFSET 0.265709 0.012698 -0.007375
								CHANNELS 3 Zrotation Yrotation Xrotation
								End Site
								{
									OFFSET 0.000000 0.000000 0.000000
								}
							}
						}
					}
				}
				JOINT rclavicle
				{
					OFFSET -0.082954 0.112472 -0.023707
					CHANNELS 3 Zrotation Yrotation Xrotation
					JOINT rshoulder
					{
						OFFSET -0.113228 0.046853 -0.008472
						CHANNELS 3 Zrotation Yrotation Xrotation
						JOINT relbow
						{
							OFFSET -0.260127 -0.014369 -0.031269
							CHANNELS 3 Zrotation Yrotation Xrotation
							JOINT rwrist
							{
								OFFSET -0.269108 0.006794 -0.006027
								CHANNELS 3 Zrotation Yrotation Xrotation
								End Site
								{
									OFFSET 0.000000 0.000000 0.000000
								}
							}
						}
					}
				}
			}
		}
	}
}
MOTION
Frames: 8
Frame Time: 0.033333
-1.043230 2.733002 0.988402 -16.556205 0.627232 85.932862 3.291404 7.296653 10.826232 -4.463657 5.110888 -5.699184 1.140329 17.600552 -13.654202 0.000000 -0.000000 0.000000 -0.903350 -3.438037 2.971592 3.041625 -4.992395 9.606804 2.031249 -8.429153 -12.366649 0.000000 -0.000000 0.000000 2.843386 -1.001585 -0.345759 0.501988 -2.209376 10.667354 -0.361944 -2.879636 -1.979651 3.193332 7.701138 -8.807697 -0.819003 8.723142 16.250847 -31.206045 0.232057 4.360582 -57.233187 -6.305413 7.074833 12.708470 -24.683034 -3.608085 -0.665580 -8.612049 -5.357410 28.515434 3.270250 5.213600 52.600581 5.049649 12.586127 -10.699910 24.947971 -5.395539 2.578909 7.553368 -7.852958 
-1.043714 2.732832 0.988367 -16.403107 0.588961 85.950258 3.243491 7.229014 10.782176 -4.419546 5.004127 -5.674166 1.165938 17.645189 -13.660396 0.000000 -0.000000 0.000000 -0.831965 -3.348445 2.702884 2.990614 -4.787571 10.021337 2.102521 -8.875828 -12.626333 0.000000 -0.000000 0.000000 2.756962 -1.018057 -0.308232 0.482745 -2.233781 10.694790 -0.380850 -2.854579 -1.931086 3.206863 7.348924 -8.941676 -0.715485 8.459497 16.313682 -31.137452 0.254133 4.267483 -57.271117 -6.256072 7.128917 12.785143 -24.537532 -3.846137 -1.262405 -8.725425 -5.038971 28.497328 3.348634 5.096255 52.613952 5.046545 12.587671 -10.600351 25.257720 -5.453591 3.675026 7.972835 -7.698368 
-1.044201 2.732665 0.988366 -16.235978 0.534367 85.952348 3.201787 7.173522 10.756593 -4.398896 4.915379 -5.640268 1.189099 17.636010 -13.669059 0.000000 -0.000000 0.000000 -0.834109 -3.270610 2.581599 2.985983 -4.798955 10.251625 2.036762 -9.088643 -12.737351 0.000000 -0.000000 0.000000 2.665865 -1.045179 -0.274294 0.458994 -2.234920 10.736555 -0.416305 -2.855741 -1.922799 3.222443 7.100217 -8.977002 -0.637055 8.173072 16.268618 -31.113460 0.275900 4.258352 -57.260115 -6.214896 7.132312 12.794082 -24.413501 -3.888567 -1.431069 -8.738515 -4.975438 28.483878 3.390945 5.048375 52.672358 5.014483 12.635368 -10.595279 25.421097 -5.362283 3.828835 8.052031 -7.746621 
-1.044882 2.732463 0.988396 -16.059690 0.526308 85.951429 3.236653 7.133529 10.734688 -4.383314 4.853184 -5.595764 1.162655 17.569617 -13.672699 0.000000 -0.000000 0.000000 -0.796630 -3.300958 2.580049 2.981017 -4.879100 10.310880 1.996540 -9.137173 -12.780853 0.000000 -0.000000 0.000000 2.624549 -1.041387 -0.231533 0.434247 -2.238127 10.756519 -0.458999 -2.857964 -1.889643 3.217248 6.691219 -8.799696 -0.649988 7.641370 16.076956 -31.099919 0.301499 4.270247 -57.273372 -6.169918 7.142986 12.776892 -24.264124 -3.926679 -1.576815 -8.738161 -4.913183 28.429599 3.435201 4.987723 52.796961 4.926525 12.657551 -10.575362 25.441089 -5.280578 3.867231 8.066743 -7.769667 
-1.045302 2.732356 0.988403 -15.972402 0.518104 85.962284 3.249150 7.100277 10.707399 -4.371620 4.834615 -5.564332 1.152663 17.540253 -13.677233 0.000000 -0.000000 0.000000 -0.766950 -3.309487 2.577876 2.966835 -4.913999 10.324980 1.980087 -9.178000 -12.806271 0.000000 -0.000000 0.000000 2.591512 -1.030435 -0.226562 0.416834 -2.233424 10.781179 -0.492301 -2.849679 -1.865188 3.209345 6.434469 -8.736533 -0.658699 7.265097 15.976138 -31.084391 0.344835 4.281328 -57.312693 -6.152286 7.152685 12.815058 -24.218181 -3.964444 -1.691041 -8.739195 -4.857711 28.423034 3.456383 4.959434 52.888233 4.871306 12.658705 -10.583997 25.365528 -5.259477 3.884309 8.063259 -7.791474 
-1.045848 2.732240 0.988446 -15.887661 0.501042 85.982101 3.255569 7.058002 10.682451 -4.361453 4.799452 -5.542632 1.146879 17.532919 -13.679529 0.000000 -0.000000 0.000000 -0.724113 -3.289963 2.547822 2.937179 -4.946479 10.374244 1.953781 -9.248979 -12.844750 0.000000 -0.000000 0.000000 2.545973 -1.020542 -0.209366 0.383524 -2.200104 10.800511 -0.541633 -2.829607 -1.851914 3.166247 6.090852 -8.720883 -0.605089 6.776102 15.854657 -31.075897 0.400186 4.303446 -57.352301 -6.127938 7.167880 12.865874 -24.147936 -4.012844 -1.784773 -8.767009 -4.814060 28.439164 3.469256 4.950956 53.000760 4.788621 12.654858 -10.577072 25.211887 -5.218705 3.877501 8.060971 -7.835734 
-1.046377 2.732135 0.988473 -15.817972 0.471011 86.016545 3.239490 7.019573 10.650377 -4.352071 4.771360 -5.536607 1.142176 17.530043 -13.681923 0.000000 -0.000000 0.000000 -0.701172 -3.227561 2.475664 2.917526 -5.003485 10.464174 1.934997 -9.312504 -12.894809 0.000000 -0.000000 0.000000 2.481164 -1.020316 -0.219805 0.359866 -2.161425 10.845166 -0.596344 -2.801021 -1.835550 3.134252 5.687279 -8.704805 -0.599435 6.176139 15.717770 -31.049705 0.446379 4.277920 -57.385510 -6.173997 7.209169 12.818842 -23.909648 -4.060339 -1.832738 -8.861252 -4.741835 28.456942 3.483802 4.894676 53.115994 4.726145 12.664102 -10.513821 24.933387 -5.158657 3.860373 8.054552 -7.781504 
-1.046790 2.732118 0.988428 -15.731923 0.436861 86.063551 3.217321 6.975532 10.590393 -4.335352 4.726932 -5.531147 1.126957 17.531694 -13.660694 0.000000 -0.000000 0.000000 -0.691992 -3.162695 2.382155 2.901399 -5.056697 10.570803 1.929417 -9.394918 -12.940427 0.000000 -0.000000 0.000000 2.408417 -1.044297 -0.212135 0.338503 -2.135086 10.857953 -0.642711 -2.786332 -1.809963 3.085268 5.299521 -8.697705 -0.601680 5.602029 15.533845 -30.992982 0.535734 4.252960 -57.503692 -6.188958 7.260642 12.846663 -23.794669 -4.110661 -1.963015 -8.915090 -4.661033 28.465908 3.502832 4.830990 53.234151 4.657641 12.681113 -10.450185 24.637875 -5.083081 3.907996 8.025458 -7.727594 
